<svg width="208" height="235" viewBox="0 0 208 235" fill="none" xmlns="http://www.w3.org/2000/svg">
<path d="M102.609 0.00802243C105.435 -0.0634906 108.252 0.343584 110.938 1.20999C138.804 10.1904 170.099 16.3598 197.024 26.5806C203.095 28.8855 206.227 31.4504 206.883 38.0915C208.826 57.7768 207.597 85.7247 207.812 106.309C208.401 162.421 180.265 199.096 130.894 224.35C125.615 227.05 109.282 234.978 104.152 235C95.0784 235.04 69.9593 221.216 61.5569 215.957C-6.0074 173.671 -1.70485 127.162 1.49758 55.6892C1.79393 49.0632 -0.33777 34.0895 4.25132 28.8993C6.1342 26.769 9.39116 26.3565 11.9967 25.4515C38.8379 16.1356 68.117 10.4709 95.2573 1.30763C97.6267 0.507238 100.104 0.071284 102.609 0.00802243ZM123.372 169.487V113.722C123.372 112.149 118.977 108.343 117.078 107.925C113.087 107.048 98.3577 107.278 93.7868 107.687C90.8122 107.954 84.9217 110.593 84.9217 113.722V169.487C68.4734 162.515 55.3394 148.49 49.7928 131.658C47.9308 126.007 47.5618 120.414 46.4394 114.661C46.287 113.883 46.8643 112.582 45.0821 113.271C42.7561 114.17 34.3173 120.217 34.3229 122.801C34.3439 133.015 44.5006 151.84 51.1906 159.781C89.9302 205.762 159.323 184.743 172.611 128.932C182.08 89.1614 158.606 45.1919 116.064 37.9485C70.6261 30.2113 34.6165 66.368 33.35 109.569L46.8867 101.222C62.2419 22.4631 168.42 36.8551 160.87 120.158C158.937 141.483 143.1 161.176 123.372 169.487ZM121.625 81.6622C121.625 72.2101 113.829 64.5472 104.212 64.5472C94.5947 64.5472 86.799 72.2101 86.799 81.6622C86.799 91.1143 94.5947 98.7772 104.212 98.7772C113.829 98.7772 121.625 91.1143 121.625 81.6622Z" fill="#00A68A"/>
</svg>
