<svg width="68" height="74" viewBox="0 0 68 74" fill="none" xmlns="http://www.w3.org/2000/svg">
<g filter="url(#filter0_d_155_1004)">
<path d="M33.6655 7.00191C34.3449 6.98487 35.022 7.08188 35.6678 7.28834C42.3664 9.42835 49.8891 10.8985 56.3615 13.3341C57.8208 13.8834 58.5738 14.4946 58.7314 16.0771C59.1985 20.7681 58.9031 27.428 58.9549 32.3333C59.0964 45.7046 52.333 54.4442 40.4648 60.4621C39.196 61.1054 35.2697 62.9947 34.0365 63C31.8554 63.0095 25.8171 59.7152 23.7973 58.4621C7.55591 48.3853 8.59018 37.3025 9.36 20.2706C9.43123 18.6917 8.91881 15.1235 10.022 13.8866C10.4746 13.379 11.2575 13.2807 11.8838 13.065C18.336 10.8451 25.3743 9.4952 31.8984 7.31161C32.4679 7.12087 33.0634 7.01699 33.6655 7.00191ZM38.6567 47.3884V34.0997C38.6567 33.7248 37.6003 32.818 37.1436 32.7184C36.1843 32.5093 32.6437 32.564 31.5449 32.6617C30.8299 32.7253 29.4139 33.3542 29.4139 34.0997V47.3884C25.46 45.7269 22.3027 42.3848 20.9694 38.3738C20.5218 37.0272 20.4331 35.6944 20.1633 34.3235C20.1267 34.1381 20.2655 33.828 19.837 33.9922C19.2779 34.2066 17.2494 35.6475 17.2507 36.2633C17.2557 38.6973 19.6973 43.1831 21.3054 45.0754C30.6178 56.0327 47.2988 51.0238 50.493 37.7243C52.7691 28.247 47.1264 17.7691 36.9 16.043C25.9774 14.1993 17.3213 22.8154 17.0168 33.11L20.2708 31.1211C23.962 12.3529 49.4856 15.7825 47.6707 35.6334C47.206 40.7151 43.3989 45.408 38.6567 47.3884ZM38.2367 26.4599C38.2367 24.2075 36.3627 22.3815 34.0509 22.3815C31.7391 22.3815 29.8652 24.2075 29.8652 26.4599C29.8652 28.7123 31.7391 30.5384 34.0509 30.5384C36.3627 30.5384 38.2367 28.7123 38.2367 26.4599Z" fill="url(#paint0_linear_155_1004)"/>
<path d="M11.9652 13.3014C15.1811 12.195 18.5448 11.3047 21.9276 10.4165C22.0225 10.3916 22.1173 10.3667 22.2122 10.3418C25.498 9.47922 28.7981 8.61288 31.9777 7.54868L31.9778 7.54867C32.5235 7.36592 33.0942 7.26629 33.6718 7.25183L33.6655 7.00192L33.6718 7.25183C34.3233 7.23549 34.9725 7.32851 35.5917 7.52647L35.5918 7.52648C38.3891 8.42015 41.3301 9.19736 44.2714 9.97462C44.8597 10.1301 45.448 10.2855 46.0351 10.4419C49.5618 11.3813 53.05 12.3551 56.2735 13.5681C56.993 13.8389 57.5016 14.1125 57.8517 14.4885C58.195 14.8573 58.4077 15.3489 58.4827 16.1019C58.8048 19.3374 58.7627 23.5063 58.7234 27.4008C58.7058 29.1359 58.6889 30.8165 58.7049 32.3359C58.7752 38.9761 57.1318 44.4523 54.0072 49.014C50.8808 53.5784 46.2603 57.2432 40.3518 60.2391C39.7205 60.5592 38.4269 61.1898 37.139 61.7405C36.4949 62.0159 35.8557 62.2697 35.3034 62.4546C34.7415 62.6427 34.2993 62.7489 34.0354 62.75C33.5378 62.7522 32.7874 62.5623 31.8855 62.2361C30.9921 61.913 29.9781 61.4668 28.9648 60.9793C26.9381 60.0041 24.9314 58.8715 23.9291 58.2496L23.7973 58.4621L23.9291 58.2496C15.8515 53.238 12.0965 47.9961 10.4407 41.9089C8.8777 36.1628 9.17818 29.6485 9.5402 21.8C9.56328 21.2994 9.58662 20.7934 9.60974 20.2819L9.60974 20.2819C9.62805 19.8762 9.60897 19.3478 9.58842 18.7783L9.58819 18.7719L9.58816 18.7713C9.56735 18.1945 9.54475 17.5684 9.55398 16.9541C9.56323 16.3387 9.60439 15.7449 9.70815 15.2336C9.81279 14.7181 9.97581 14.314 10.2085 14.053L10.2086 14.053C10.3928 13.8464 10.654 13.7123 10.9699 13.6025C11.127 13.5478 11.2907 13.5014 11.4601 13.4536L11.4766 13.449C11.6383 13.4035 11.806 13.3563 11.9652 13.3014ZM11.9652 13.3014L11.8838 13.065L11.9652 13.3014ZM47.4218 35.6107C46.9778 40.4654 43.4116 44.9787 38.9067 47.0074V34.0997C38.9067 33.9988 38.8727 33.9039 38.835 33.8269C38.7958 33.7467 38.7427 33.666 38.6833 33.5882C38.5646 33.4324 38.4061 33.2691 38.2377 33.1191C38.0686 32.9686 37.8834 32.826 37.7078 32.7132C37.5384 32.6043 37.356 32.5088 37.1969 32.4741L37.1969 32.4741C36.9343 32.4169 36.5142 32.3806 36.0304 32.3579C35.5412 32.3349 34.9702 32.3251 34.3966 32.325C33.2518 32.3248 32.0833 32.3629 31.5228 32.4127L31.5425 32.6346L31.5228 32.4127C31.122 32.4483 30.5542 32.6358 30.0854 32.909C29.8494 33.0465 29.6256 33.213 29.458 33.405C29.2911 33.5961 29.1639 33.8315 29.1639 34.0997V47.0069C25.4368 45.3261 22.4773 42.1173 21.2066 38.295C20.9889 37.64 20.8574 36.985 20.7463 36.3168C20.7091 36.0931 20.674 35.866 20.6385 35.6367C20.5691 35.1883 20.4984 34.7315 20.4086 34.2753L20.4086 34.2751C20.4059 34.2615 20.4057 34.2389 20.4071 34.176L20.4072 34.169C20.4083 34.1235 20.4104 34.0365 20.387 33.9566C20.3731 33.9089 20.3468 33.8503 20.2955 33.7991C20.2421 33.7458 20.1765 33.7153 20.1092 33.7028C19.9901 33.6807 19.8635 33.7143 19.7476 33.7588L19.7476 33.7588C19.5813 33.8225 19.3308 33.9655 19.0605 34.1414C18.7849 34.3206 18.4722 34.545 18.177 34.7824C17.883 35.0189 17.6001 35.2735 17.3882 35.5133C17.2825 35.6331 17.1893 35.7549 17.1215 35.8737C17.0559 35.9884 17.0004 36.1234 17.0007 36.2639C17.0034 37.5419 17.6383 39.316 18.4523 40.9822C19.2705 42.6572 20.2936 44.2708 21.1149 45.2373C30.5734 56.3665 47.4991 51.2603 50.736 37.7827C53.0408 28.1863 47.3319 17.5503 36.9416 15.7965C25.847 13.9237 17.0752 22.68 16.7669 33.1026L16.7533 33.5641L17.1472 33.3233L20.4012 31.3344L20.4949 31.2771L20.5161 31.1693C22.3354 21.9189 29.5126 18.169 35.9984 19.1423C42.4811 20.1152 48.3173 25.8154 47.4218 35.6107ZM38.4867 26.4599C38.4867 24.0634 36.4946 22.1315 34.0509 22.1315C31.6072 22.1315 29.6152 24.0634 29.6152 26.4599C29.6152 28.8565 31.6072 30.7884 34.0509 30.7884C36.4946 30.7884 38.4867 28.8565 38.4867 26.4599Z" stroke="url(#paint1_linear_155_1004)" stroke-width="0.5"/>
</g>
<defs>
<filter id="filter0_d_155_1004" x="0" y="0" width="68" height="74" filterUnits="userSpaceOnUse" color-interpolation-filters="sRGB">
<feFlood flood-opacity="0" result="BackgroundImageFix"/>
<feColorMatrix in="SourceAlpha" type="matrix" values="0 0 0 0 0 0 0 0 0 0 0 0 0 0 0 0 0 0 127 0" result="hardAlpha"/>
<feOffset dy="2"/>
<feGaussianBlur stdDeviation="4.5"/>
<feComposite in2="hardAlpha" operator="out"/>
<feColorMatrix type="matrix" values="0 0 0 0 0.0666667 0 0 0 0 0.74902 0 0 0 0 0.670588 0 0 0 0.28 0"/>
<feBlend mode="normal" in2="BackgroundImageFix" result="effect1_dropShadow_155_1004"/>
<feBlend mode="normal" in="SourceGraphic" in2="effect1_dropShadow_155_1004" result="shape"/>
</filter>
<linearGradient id="paint0_linear_155_1004" x1="8.81848" y1="14.9857" x2="48.5267" y2="55.6994" gradientUnits="userSpaceOnUse">
<stop stop-color="#69D3C1"/>
<stop offset="0.326928" stop-color="#479A8C"/>
<stop offset="0.504843" stop-color="#82ECDA"/>
<stop offset="0.76835" stop-color="#53AD9E"/>
<stop offset="0.903234" stop-color="#69D3C1"/>
</linearGradient>
<linearGradient id="paint1_linear_155_1004" x1="34" y1="7" x2="34" y2="63" gradientUnits="userSpaceOnUse">
<stop stop-color="#8FF3EB"/>
<stop offset="0.504824" stop-color="#207677"/>
<stop offset="1" stop-color="#A5FFF0"/>
</linearGradient>
</defs>
</svg>
